<?xml version="1.0" encoding="UTF-8" standalone="no"?><!DOCTYPE svg PUBLIC "-//W3C//DTD SVG 1.1//EN" "http://www.w3.org/Graphics/SVG/1.1/DTD/svg11.dtd"><svg width="100%" height="100%" viewBox="0 0 1024 512" version="1.1" xmlns="http://www.w3.org/2000/svg" xmlns:xlink="http://www.w3.org/1999/xlink" xml:space="preserve" style="fill-rule:evenodd;clip-rule:evenodd;stroke-linejoin:round;stroke-miterlimit:2;"><title>NEO Finance</title><desc>NEO Finance is the P2P investment arm of the Lithuanian lender Paskolu Klubas. We have been operating since 2016 and hold authorizations from the Bank of Lithuania.We offer opportunity to invest in traditional personal loans with typical rates of around 18% and terms of 48 months. We will buy back defaulted loans at our expected future recovery level which is between 50-80% of outstanding balance. We forecast that our investors should expect net returns of between 11 to 15% after defaults.</desc>    <g id="neofinance-512x256.svg" transform="matrix(2.21719,0,0,2.21719,-55.4878,-27.851)">        <path d="M205.68,124.36c1.21,-7.2 1.33,-28.94 -1.15,-34.45c-2.716,-5.935 -8.673,-9.756 -15.2,-9.75l-22,0c-1.14,-3.36 -2.85,-4.35 -6.89,-4.29l-3.94,0l0,-2.67c0.06,-5.69 -1.82,-11.5 -6.3,-15.32c-8.36,-7.08 -58.49,-7.08 -66.84,0c-4.48,3.81 -6.3,9.63 -6.3,15.32l0,2.66l-3.91,0c-4,-0.05 -5.72,0.91 -6.87,4.21l-10.28,0.03c-1.09,0.06 -2.18,0.06 -3.21,0.06c-4.36,0.06 -8.72,-0.24 -13,0.42c-5.81,0.85 -9.87,3.94 -12,9.08c-2.24,5.39 -2.24,33.54 -1.15,37.24c2.64,8.91 17.06,15.85 36.69,20.3c1.6,1.51 3.26,3 4.89,4.45c-15.18,-3.24 -28,-8.08 -36,-14.47c0,14.35 -0.12,36.57 0,50.8c0.12,8.17 8.05,15.5 16.29,15.44c10.6,-0.06 21.19,0 31.79,0l102.92,0c9.87,0 17.19,-7.27 17.19,-17.13l0,-49.4c-7.83,7.37 -21.78,12.62 -38.53,15.83c1.31,-1.39 2.65,-2.78 4,-4.16c20.92,-4.4 36.65,-12.28 39.8,-24.2Zm-107.89,-60.91c7.75,-1.63 30.27,-1.63 38,0c6.21,1.27 7.59,6.78 7.21,12.55l-2.4,0c-3.9,-0.05 -5.66,0.88 -6.82,4.06l-34,0c-1.11,-3.15 -2.83,-4.06 -6.78,-4.06l-2.41,0c-0.37,-5.77 1.03,-11.28 7.2,-12.55Zm-11.08,94.21c-1.39,-1.33 -3.69,-3.39 -5,-4.72c-1.09,-1.15 -1.45,-2.18 0.06,-3.45c0.24,-0.24 2,-2.18 4.12,-4.18c1.22,-1.353 2.6,-2.551 4.11,-3.57c4.36,-2.24 10.84,3.69 6.3,8.84c-0.24,0.3 -2,2.18 -4.12,4.24c-0.79,0.79 -1.57,1.51 -2.24,2.18c-1.65,1.57 -2.26,1.51 -3.23,0.66Zm10,9.2c-1.45,-1.33 -3.69,-3.39 -5,-4.72c-1.09,-1.15 -1.45,-2.12 0.06,-3.39c0.24,-0.3 2,-2.18 4.12,-4.24c1.166,-1.347 2.512,-2.528 4,-3.51c4.36,-2.24 10.9,3.63 6.36,8.78c-0.24,0.3 -2,2.18 -4.12,4.24c-0.79,0.79 -1.57,1.57 -2.24,2.18c-1.61,1.57 -2.22,1.51 -3.19,0.66l0.01,0Zm9.75,9.14c-1.39,-1.27 -3.69,-3.39 -5,-4.66c-1.09,-1.21 -1.45,-2.18 0.06,-3.45c0.3,-0.24 2,-2.18 4.12,-4.24c1.218,-1.318 2.58,-2.495 4.06,-3.51c4.36,-2.24 10.84,3.69 6.3,8.84c-0.24,0.24 -1.94,2.18 -4.06,4.24c-0.85,0.79 -1.63,1.51 -2.3,2.18c-1.64,1.6 -2.22,1.51 -3.19,0.6l0.01,0Zm19,2.12c-0.24,0.3 -2,2.18 -4.12,4.24c-0.79,0.79 -1.57,1.51 -2.24,2.18c-1.63,1.57 -2.24,1.51 -3.21,0.67c-1.45,-1.33 -3.69,-3.39 -5,-4.72c-1.09,-1.15 -1.45,-2.18 0.06,-3.39c0.24,-0.3 2,-2.24 4.12,-4.24c1.186,-1.345 2.529,-2.544 4,-3.57c4.39,-2.29 10.93,3.71 6.39,8.83Zm24.7,-22.89c-1.51,1.76 -3.51,3.69 -6.66,0.61c-2,-1.94 -5.09,-5.09 -5.69,-5.69c-0.6,-0.6 -1,-0.85 -1.51,-1.39l-10.3,-10.29c-0.91,-0.91 -2.48,-3.33 -3.94,-2.18c-0.431,0.291 -0.626,0.831 -0.48,1.33c0.12,0.67 1,1.21 1.39,1.7c3.69,3.63 7.27,7.39 11.08,10.9c2,1.88 5.69,5.69 7.87,7.87c2,2.06 2.24,4 -0.24,6.12c-1.39,1.27 -3.09,2.91 -4.6,2.06c-1.251,-0.911 -2.407,-1.947 -3.45,-3.09c-2.48,-2.42 -4.9,-4.84 -7.33,-7.27c-0.54,-0.61 -1,-0.91 -1.57,-1.45c-3,-2.91 -5.87,-5.87 -8.78,-8.78c-2.3,-2.54 -3.87,-0.3 -2.42,1.39c1.09,1.33 3.39,3.39 3.94,3.94c2.91,2.91 17.07,15.8 17.74,18.65c0.06,0.3 -0.24,0.42 -0.24,0.73c0,2.06 -3.63,4.78 -5.81,4.3c-0.168,-0.982 -0.391,-1.954 -0.67,-2.91c-1.39,-3.69 -4.06,-5.51 -9.08,-5c2.24,-4.84 -3.45,-10.72 -9.26,-9.2c1.39,-5.33 -3.57,-10.66 -9.38,-9.45c0.06,-0.42 0.12,-0.79 0.18,-1.21c0.3,-5.75 -5.39,-10.66 -11.32,-7.2c-3.09,1.76 -3.75,2.85 -7.63,6.78c-0.939,1.059 -1.941,2.061 -3,3c-5.141,-4.183 -10.007,-8.693 -14.57,-13.5c-1.21,-1.33 -1.76,-1.27 0,-3.51c5.45,-6.24 19,-19.92 27.49,-28.64c1.15,-1.21 4.72,-2.66 7.63,-2.36c2.3,0.24 3.33,1.27 4.9,2.66c1.57,1.39 3.39,3.33 5.69,5.57c2.91,2.91 4.36,3 1.94,5.39c-2.6,2.6 -6.36,6.42 -7.81,7.63c-0.67,0.54 -5.93,5.93 -7,7l-1.17,1.26c-0.36,0.36 -0.91,0.73 -0.91,1.39c0.17,0.594 0.519,1.122 1,1.51c7.33,6.3 17.13,4.72 23.55,-1.82c2.48,-2.54 5.63,-6.36 6.54,-7c5.21,5.09 10.47,10.17 15.38,15.44c2.06,2.24 6.24,6.24 8.54,8.6c2.63,2.61 1.54,4.3 -0.04,6.12l0,-0.01Zm4.54,-7.45c-0.289,0.375 -0.625,0.711 -1,1l-11.2,-11.32c-0.534,-0.514 -1.038,-1.058 -1.51,-1.63l-9.69,-9.63c-1.092,-1.009 -2.124,-2.08 -3.09,-3.21c2.48,-3 0.42,-3.87 -1.33,-2.42l-7.57,7.57c-7.81,7.51 -12.78,9.2 -20.52,4.06c2.66,-2.48 15.14,-15 23.92,-23.49c9.87,-9.51 12.17,-11.08 20.83,-2.79c7.93,7.57 15.86,15.08 23.67,22.77c2.36,2.36 2.79,3 0.79,5.21c-4.27,4.69 -9,9.23 -13.3,13.89l0,-0.01Z" style="fill:rgb(8,23,73);fill-rule:nonzero;"/>        <path d="M275.23,79.94l-4.82,0l0,40.59c-1.493,-2.667 -3.403,-5.757 -5.73,-9.27c-2.327,-3.513 -4.837,-7.147 -7.53,-10.9c-2.667,-3.713 -5.41,-7.363 -8.23,-10.95c-2.82,-3.587 -5.443,-6.743 -7.87,-9.47l-3.89,0l0,49.86l4.84,0l0,-42c1.367,1.633 2.93,3.573 4.69,5.82c1.76,2.247 3.563,4.657 5.41,7.23c1.84,2.567 3.69,5.21 5.55,7.93c1.86,2.72 3.643,5.353 5.35,7.9c1.707,2.547 3.26,4.953 4.66,7.22c1.4,2.267 2.56,4.233 3.48,5.9l4.1,0l-0.01,-49.86Z" style="fill:rgb(8,23,73);fill-rule:nonzero;"/>        <path d="M318.84,125.56l-25.76,0l0,-19.86l21.3,0l0,-4.18l-21.3,0l0,-17.34l23.89,0l0,-4.24l-28.78,0l0,49.86l30.65,0l0,-4.24Z" style="fill:rgb(8,23,73);fill-rule:nonzero;"/>        <path d="M364.71,85.44c-2.101,-2.159 -4.642,-3.84 -7.45,-4.93c-5.795,-2.21 -12.205,-2.21 -18,0c-2.809,1.088 -5.35,2.77 -7.45,4.93c-2.229,2.334 -3.955,5.101 -5.07,8.13c-1.31,3.606 -1.944,7.424 -1.87,11.26c-0.072,3.849 0.561,7.679 1.87,11.3c1.108,3.044 2.835,5.826 5.07,8.17c2.099,2.161 4.641,3.842 7.45,4.93c5.795,2.21 12.205,2.21 18,0c2.808,-1.09 5.349,-2.771 7.45,-4.93c2.235,-2.345 3.961,-5.127 5.07,-8.17c1.309,-3.621 1.942,-7.451 1.87,-11.3c0.074,-3.836 -0.56,-7.654 -1.87,-11.26c-1.116,-3.028 -2.841,-5.796 -5.07,-8.13Zm0.47,28.42c-0.767,2.485 -2.014,4.795 -3.67,6.8c-1.557,1.852 -3.512,3.329 -5.72,4.32c-4.797,2.004 -10.203,2.004 -15,0c-2.208,-0.991 -4.163,-2.468 -5.72,-4.32c-1.656,-2.005 -2.903,-4.315 -3.67,-6.8c-1.727,-5.896 -1.727,-12.164 0,-18.06c0.746,-2.479 1.969,-4.789 3.6,-6.8c1.552,-1.847 3.51,-3.312 5.72,-4.28c4.807,-1.957 10.193,-1.957 15,0c2.236,0.959 4.218,2.424 5.79,4.28c1.656,2.005 2.903,4.315 3.67,6.8c1.727,5.896 1.727,12.164 0,18.06Z" style="fill:rgb(8,23,73);fill-rule:nonzero;"/>        <path d="M236.45,202.43l11.22,0l0,-20.59l19.72,0l0,-9.42l-19.72,0l0,-10.44l22.16,0l0,-9.42l-33.38,0l0,49.87Z" style="fill:rgb(8,23,73);fill-rule:nonzero;"/>        <path d="M281.64,147.3c-1.659,-0.026 -3.268,0.578 -4.5,1.69c-2.525,2.554 -2.525,6.726 0,9.28c2.564,2.246 6.436,2.246 9,0c2.525,-2.554 2.525,-6.726 0,-9.28c-1.232,-1.112 -2.841,-1.716 -4.5,-1.69Z" style="fill:rgb(8,23,73);fill-rule:nonzero;"/>        <rect x="276.31" y="164.57" width="10.72" height="37.85" style="fill:rgb(8,23,73);"/>        <path d="M325.6,168.53c-1.351,-1.607 -3.099,-2.835 -5.07,-3.56c-2.566,-0.91 -5.279,-1.337 -8,-1.26c-3.036,-0.011 -6.069,0.216 -9.07,0.68c-2.377,0.348 -4.732,0.839 -7.05,1.47l0,36.56l10.72,0l0,-29.21c0.667,-0.093 1.433,-0.177 2.3,-0.25c0.867,-0.073 1.683,-0.11 2.45,-0.11c2.493,0 4.197,0.72 5.11,2.16c0.913,1.44 1.37,3.887 1.37,7.34l0,20.08l10.72,0l0,-21.38c0.025,-2.373 -0.24,-4.741 -0.79,-7.05c-0.481,-2 -1.4,-3.868 -2.69,-5.47Z" style="fill:rgb(8,23,73);fill-rule:nonzero;"/>        <path d="M364.64,167.74c-1.412,-1.428 -3.153,-2.49 -5.07,-3.09c-2.564,-0.785 -5.239,-1.15 -7.92,-1.08c-1.247,0 -2.48,0.06 -3.7,0.18c-1.22,0.12 -2.383,0.263 -3.49,0.43c-1.107,0.167 -2.127,0.36 -3.06,0.58c-0.933,0.22 -1.713,0.423 -2.34,0.61l1.37,8.64c1.495,-0.529 3.039,-0.904 4.61,-1.12c1.788,-0.266 3.593,-0.399 5.4,-0.4c2.733,0 4.653,0.55 5.76,1.65c1.128,1.175 1.725,2.763 1.65,4.39l0,1c-0.863,-0.227 -1.742,-0.384 -2.63,-0.47c-1.232,-0.127 -2.471,-0.187 -3.71,-0.18c-2.016,-0.008 -4.027,0.197 -6,0.61c-1.805,0.369 -3.534,1.046 -5.11,2c-1.478,0.903 -2.703,2.165 -3.56,3.67c-0.934,1.718 -1.393,3.655 -1.33,5.61c-0.062,2.005 0.332,3.998 1.15,5.83c0.742,1.554 1.885,2.883 3.31,3.85c1.563,1.034 3.312,1.754 5.15,2.12c2.191,0.453 4.423,0.671 6.66,0.65c3.323,0.042 6.644,-0.186 9.93,-0.68c2.733,-0.453 4.87,-0.85 6.41,-1.19l0,-22.35c0.024,-2.159 -0.242,-4.312 -0.79,-6.4c-0.482,-1.817 -1.406,-3.487 -2.69,-4.86Zm-6.8,26.91c-0.762,0.116 -1.53,0.19 -2.3,0.22c-0.96,0.047 -1.96,0.07 -3,0.07c-1.607,0.072 -3.205,-0.273 -4.64,-1c-1.178,-0.747 -1.835,-2.102 -1.69,-3.49c-0.027,-0.762 0.175,-1.514 0.58,-2.16c0.396,-0.589 0.941,-1.062 1.58,-1.37c0.737,-0.353 1.528,-0.583 2.34,-0.68c0.942,-0.123 1.89,-0.183 2.84,-0.18c0.795,0.003 1.59,0.05 2.38,0.14c0.867,0.1 1.513,0.197 1.94,0.29l-0.03,8.16Z" style="fill:rgb(8,23,73);fill-rule:nonzero;"/>        <path d="M406.34,168.53c-1.351,-1.607 -3.099,-2.835 -5.07,-3.56c-2.566,-0.91 -5.279,-1.337 -8,-1.26c-3.036,-0.011 -6.069,0.216 -9.07,0.68c-2.377,0.348 -4.732,0.839 -7.05,1.47l0,36.56l10.72,0l0,-29.21c0.667,-0.093 1.433,-0.177 2.3,-0.25c0.867,-0.073 1.683,-0.11 2.45,-0.11c2.493,0 4.197,0.72 5.11,2.16c0.913,1.44 1.37,3.887 1.37,7.34l0,20.08l10.72,0l0,-21.38c0.015,-2.375 -0.26,-4.742 -0.82,-7.05c-0.473,-1.997 -1.381,-3.865 -2.66,-5.47Z" style="fill:rgb(8,23,73);fill-rule:nonzero;"/>        <path d="M442,193.86c-1.378,0.231 -2.773,0.351 -4.17,0.36c-3.647,0 -6.2,-0.937 -7.66,-2.81c-1.46,-1.873 -2.193,-4.51 -2.2,-7.91c-0.134,-2.781 0.692,-5.526 2.34,-7.77c1.56,-2 3.923,-3 7.09,-3c1.346,-0.012 2.688,0.132 4,0.43c1.123,0.263 2.229,0.597 3.31,1l2.23,-8.56c-1.577,-0.671 -3.215,-1.19 -4.89,-1.55c-1.823,-0.374 -3.679,-0.555 -5.54,-0.54c-2.813,-0.05 -5.607,0.488 -8.2,1.58c-4.672,1.976 -8.303,5.829 -10,10.61c-0.898,2.501 -1.342,5.143 -1.31,7.8c-0.022,2.668 0.355,5.324 1.12,7.88c0.694,2.336 1.9,4.489 3.53,6.3c1.709,1.846 3.811,3.285 6.15,4.21c2.843,1.095 5.874,1.621 8.92,1.55c2.078,0.016 4.151,-0.179 6.19,-0.58c1.601,-0.304 3.168,-0.763 4.68,-1.37l-1.51,-8.78c-1.309,0.546 -2.679,0.932 -4.08,1.15Z" style="fill:rgb(8,23,73);fill-rule:nonzero;"/>        <path d="M481.32,168.5c-3.12,-3.287 -7.367,-4.93 -12.74,-4.93c-2.306,0.001 -4.59,0.443 -6.73,1.3c-2.172,0.857 -4.144,2.154 -5.79,3.81c-1.763,1.814 -3.143,3.963 -4.06,6.32c-1.086,2.811 -1.613,5.807 -1.55,8.82c-0.022,2.637 0.38,5.261 1.19,7.77c0.745,2.324 1.999,4.452 3.67,6.23c1.759,1.821 3.896,3.234 6.26,4.14c2.84,1.064 5.858,1.577 8.89,1.51c1.336,-0.003 2.671,-0.076 4,-0.22c1.333,-0.147 2.593,-0.327 3.78,-0.54c1.079,-0.192 2.148,-0.442 3.2,-0.75c0.789,-0.223 1.558,-0.51 2.3,-0.86l-1.44,-8.71c-1.493,0.613 -3.049,1.059 -4.64,1.33c-1.909,0.361 -3.847,0.542 -5.79,0.54c-2.589,0.134 -5.156,-0.545 -7.34,-1.94c-1.763,-1.198 -2.899,-3.127 -3.09,-5.25l24.32,0c0,-0.58 0.1,-1.23 0.14,-2c0.04,-0.77 0.07,-1.43 0.07,-2.05c0.02,-6.393 -1.53,-11.233 -4.65,-14.52Zm-19.86,11.19c0.144,-0.919 0.372,-1.823 0.68,-2.7c0.293,-0.856 0.744,-1.65 1.33,-2.34c0.597,-0.687 1.333,-1.239 2.16,-1.62c0.972,-0.429 2.028,-0.637 3.09,-0.61c1.08,-0.035 2.153,0.188 3.13,0.65c0.803,0.4 1.514,0.962 2.09,1.65c0.554,0.679 0.969,1.46 1.22,2.3c0.264,0.864 0.422,1.758 0.47,2.66l-14.17,0.01Z" style="fill:rgb(8,23,73);fill-rule:nonzero;"/>    </g></svg>