<?xml version="1.0" encoding="utf-8"?>
<!DOCTYPE svg PUBLIC "-//W3C//DTD SVG 20010904//EN" "http://www.w3.org/TR/2001/REC-SVG-20010904/DTD/svg10.dtd">
<svg version="1.0" xmlns="http://www.w3.org/2000/svg" width="1024px" height="1024px" viewBox="0 0 1024 1024" preserveAspectRatio="xMidYMid meet">
 <g fill="#00bdae">
  <path d="M201.3 670.5 c-11.8 -2.6 -14.8 -4.9 -47.6 -37.5 l-30.8 -30.5 9.8 -0.6 c10.4 -0.6 16.1 -2.4 22.8 -7 2.2 -1.5 14.6 -13.4 27.5 -26.4 22.7 -22.8 26.9 -26.5 30.6 -26.5 0.9 0 13.5 11.7 27.9 26 24.1 23.9 26.8 26.3 33.8 29.5 5.8 2.8 9.3 3.8 15.6 4.3 l8.2 0.7 -30.8 30.5 c-33.1 32.9 -35.7 34.9 -48 37.5 -8.2 1.8 -10.9 1.8 -19 0z"/>
  <path d="M89.8 569.3 c-16.2 -16.5 -20 -20.9 -22.6 -26.3 -4.4 -9 -5.8 -18.4 -4.2 -27.2 2.3 -12.8 5.3 -17.3 26.9 -39.1 l19.6 -19.9 14.5 0.4 c12.5 0.3 15.2 0.6 19.5 2.6 3.8 1.8 11 8.3 31 28.2 16.9 16.8 27.3 26.4 29.7 27.5 4.8 1.9 12.8 1.9 17.6 0 2.4 -1.1 12.8 -10.7 29.7 -27.5 30.9 -30.8 30 -30.2 48.5 -30.8 l12.5 -0.4 19.7 19.9 c16.9 17.1 20.2 20.9 22.9 26.6 6.3 13.6 6.3 26.4 -0.2 39.6 -2.7 5.5 -6.5 9.9 -22.8 26.5 l-19.6 19.8 -12.2 -0.5 c-18.8 -0.8 -18.7 -0.7 -49.3 -31.2 -16.7 -16.6 -26.8 -25.9 -29.2 -27 -4.8 -1.9 -12.8 -1.9 -17.6 0 -2.4 1 -12.4 10.2 -28.7 26.4 -13.7 13.6 -26.4 25.8 -28.1 26.9 -5.2 3.5 -13.7 5.2 -26.4 5.2 l-11.6 0 -19.6 -19.7z"/>
  <path d="M211 503.3 c-0.8 -0.3 -13.2 -12.1 -27.5 -26.3 -30.4 -30.1 -32.2 -31.3 -49.4 -33.3 l-10.2 -1.2 30.3 -30.2 c27.2 -27.1 31 -30.5 37 -33.3 13.6 -6.4 26 -6.4 39.6 0 6 2.8 9.8 6.2 37.5 33.8 l30.8 30.7 -7.8 0.6 c-8.3 0.7 -14.3 2.5 -20.2 6.1 -2 1.2 -15.1 13.5 -29.1 27.4 -14 13.8 -26.4 25.4 -27.5 25.7 -1.1 0.3 -2.7 0.3 -3.5 0z"/>
  <path d="M669.5 385.2 c-5 -3.1 -13.5 -13.1 -13.5 -15.9 0 -4.2 13.6 -17.3 18.1 -17.3 0.6 0 4.4 3.2 8.5 7.2 9.8 9.5 9.9 10.9 0.7 20 -3.8 3.6 -7.7 6.9 -8.8 7.2 -1.1 0.3 -3.3 -0.2 -5 -1.2z"/>
 </g>
 <g fill="#94969a">
  <path d="M428.1 655.7 l-2.2 -2.4 0.3 -99.9 0.3 -99.9 2.4 -6.5 c7.1 -19.7 19 -33.3 36.2 -41.5 13.4 -6.3 15.3 -6.5 56.4 -6.5 42.1 0 43.1 0.1 58.3 7.6 17.3 8.5 30.3 24.7 35.2 44 1.8 6.8 2 11.1 2 36.3 0 32.6 -0.6 36.4 -7.2 50.1 -3.3 6.9 -5.7 10.1 -12.7 17.1 -9.4 9.3 -17.2 14.3 -28.6 18 -6.8 2.3 -8.1 2.4 -52.5 2.7 -48.9 0.3 -48.9 0.3 -51 -4.8 -1.5 -3.5 0.9 -8.7 4.3 -9.5 1.2 -0.3 22 -0.6 46.2 -0.8 l44 -0.2 6.7 -2.6 c18 -7 30.2 -20.7 34.4 -38.6 1.2 -5.4 1.5 -11.9 1.2 -34.7 -0.4 -26 -0.6 -28.5 -2.6 -34 -5.7 -15.2 -17.6 -27.1 -32.7 -32.8 -5.7 -2.2 -7.5 -2.3 -42.3 -2.6 -39.5 -0.3 -42.8 0 -54.1 5.5 -7.9 3.8 -18.1 13.9 -22.5 22.2 -6.8 13 -6.6 9.1 -6.6 115.7 l0 96.1 -2.3 2.1 c-3.1 2.9 -7.7 2.9 -10.6 -0.1z"/>
  <path d="M470.2 645.5 l-0.2 -11 6.9 -0.3 c8.5 -0.4 11.1 1.4 11.1 7.7 0 5.9 -3.6 8.4 -11.2 7.9 l-5.7 -0.4 -0.4 3.5 c-0.2 2 -0.4 -1.3 -0.5 -7.4z m13.8 2.5 c2.7 -1.5 3.6 -7.4 1.6 -10.5 -1.7 -2.6 -5 -3.2 -11.5 -1.9 -3 0.6 -3.1 0.8 -3.1 6.4 0 3.7 0.5 6 1.3 6.3 2.2 0.9 9.8 0.7 11.7 -0.3z"/>
  <path d="M665 655.3 c3 -0.6 6 -3.1 6 -5 0 -0.8 -1.8 -4.7 -4.1 -8.8 -2.2 -4.1 -3.7 -7.5 -3.2 -7.5 0.5 0 2.4 3.2 4.3 7 1.9 3.9 3.7 7 4 7 0.3 0 2.1 -3.1 4 -7 1.8 -3.8 3.5 -6.8 3.7 -6.6 0.8 0.8 -9.7 20.4 -11.2 21 -0.9 0.3 -2.6 0.5 -3.8 0.5 -1.9 -0.2 -1.9 -0.2 0.3 -0.6z"/>
  <path d="M496.5 648.8 c-2.9 -1.6 -3.5 -2.8 -3.5 -7 0 -5.6 2.7 -7.8 9.5 -7.8 6.9 0 9.5 2.2 9.5 8 0 5.6 -2.6 8 -8.7 8 -2.7 0 -5.7 -0.6 -6.8 -1.2z m12.5 -1.8 c1.1 -1.1 2 -3.3 2 -5 0 -4.5 -3.1 -7 -8.5 -7 -5.4 0 -8.5 2.5 -8.5 7 0 4.5 3.1 7 8.5 7 3.2 0 5.1 -0.6 6.5 -2z"/>
  <path d="M519.2 642.3 c-1.7 -4.2 -2.9 -7.9 -2.7 -8.1 0.4 -0.4 3 4.9 5.7 11.8 0.9 2.3 1.2 2 4 -4.7 1.7 -4 3.4 -7.3 3.8 -7.3 0.4 0 2.1 2.9 3.6 6.5 1.6 3.6 3.1 6.5 3.5 6.5 0.4 0 1.7 -2.6 2.9 -5.7 2 -5.1 5.3 -10.5 3.8 -6.3 -2.3 6.3 -6.1 15 -6.7 15 -0.3 0 -1.9 -3 -3.5 -6.5 -1.6 -3.6 -3.2 -6.5 -3.6 -6.5 -0.4 0 -2.1 2.9 -3.6 6.5 -1.6 3.6 -3.1 6.5 -3.4 6.5 -0.3 0 -2 -3.5 -3.8 -7.7z"/>
  <path d="M550 648 c-1.3 -1.3 -2 -3.3 -2 -6 0 -5.7 2.6 -8 8.9 -8 4.2 0 5.3 0.4 7 2.6 3.7 4.8 3 5.4 -6.4 5.4 -9.3 0 -10.5 1 -6.4 5.1 1.8 1.8 3 2.1 8 1.7 3.3 -0.2 5.4 -0.1 4.7 0.4 -0.7 0.4 -3.7 0.8 -6.5 0.8 -4 0 -5.8 -0.5 -7.3 -2z m14 -9 c0 -4.1 -9.4 -5.6 -13 -2 -3.3 3.3 -2.4 4 5.5 4 6.8 0 7.5 -0.2 7.5 -2z"/>
  <path d="M572.2 642.5 l-0.2 -8 4.8 -0.2 4.7 -0.1 -4.2 0.9 -4.2 1 -0.4 7.2 -0.3 7.2 -0.2 -8z"/>
  <path d="M585.9 648.1 c-1.8 -1.4 -2.4 -2.9 -2.4 -6.1 0 -5.4 2.9 -8 8.9 -8 5.1 0 8.6 2.3 8.6 5.6 0 2.3 -0.2 2.4 -8 2.4 -7.3 0 -8 0.2 -8 2 0 3.5 4.3 5.3 10.8 4.7 3.7 -0.4 5.1 -0.3 4.2 0.3 -2.7 1.7 -11.6 1.2 -14.1 -0.9z m14.1 -8.3 c0 -4.4 -9.3 -6.6 -13.2 -3.1 -3.6 3.3 -2.3 4.3 5.7 4.3 5.1 0 7.5 -0.4 7.5 -1.2z"/>
  <path d="M608.1 648.1 c-3.2 -3.2 -2.9 -9.4 0.6 -12.1 2.3 -1.8 3.8 -2.1 8.5 -1.8 l5.7 0.3 0.4 -4 c0.2 -2.2 0.4 1.2 0.5 7.5 l0.2 11.5 -6.9 0.3 c-6 0.3 -7.3 0 -9 -1.7z m11.8 0.3 c3 -0.6 3.1 -0.8 3.1 -6.4 0 -6.5 -0.5 -7 -7.4 -7 -5.9 0 -8.1 1.8 -8.1 7 0 6.3 3.6 8.1 12.4 6.4z"/>
  <path d="M642.2 638 c0.1 -6.3 0.3 -9.6 0.5 -7.4 l0.4 4.2 6.3 -0.5 c5.5 -0.5 6.6 -0.3 8.5 1.6 3 3 2.8 8.5 -0.4 11.7 -2.3 2.3 -3.2 2.5 -9 2.2 l-6.5 -0.3 0.2 -11.5z m13.1 10.1 c4.9 -1.9 4.3 -11.4 -0.8 -12.7 -1.4 -0.3 -4.5 -0.3 -7 0 l-4.5 0.7 0 5.9 c0 3.7 0.4 6 1.3 6.3 2.1 0.9 8.5 0.7 11 -0.2z"/>
  <path d="M696 639 l0 -11.3 8.5 0.5 c7.2 0.4 9 0.8 10.8 2.7 2.1 2.1 2.1 2.3 0.5 5.1 -1.5 2.7 -1.5 2.9 0.3 4.6 2.5 2.2 2.4 4.6 -0.2 7 -1.7 1.5 -4 2 -11 2.2 l-8.9 0.4 0 -11.2z m15.4 7.4 c0.9 -0.3 1.6 -1.7 1.6 -3 0 -2.3 -0.3 -2.4 -6 -2.4 l-6 0 0 3 c0 2.9 0.2 3 4.4 3 2.4 0 5.1 -0.3 6 -0.6z m-1.6 -9 c1.4 -0.4 2.2 -1.4 2.2 -2.9 0 -2.5 -2.2 -3.5 -7.7 -3.5 -3.1 0 -3.3 0.2 -3.3 3.5 0 3.3 0.2 3.5 3.3 3.5 1.7 0 4.2 -0.3 5.5 -0.6z"/>
  <path d="M724.2 648.8 c-1.7 -1.7 -1.5 -5.3 0.4 -6.9 0.9 -0.8 4.1 -1.3 7.5 -1.4 6.2 0 6.4 -0.1 4.9 -2.5 -0.6 -1 -2.6 -1.4 -6.4 -1.4 -3.9 0 -5.6 -0.4 -5.6 -1.3 0 -1.8 12 -1.8 14.5 0.1 1.4 1 2 3 2.3 7.8 l0.4 6.4 -8.4 0.2 c-5.4 0.1 -8.8 -0.2 -9.6 -1z m11.6 -1.8 c1.5 0 2.2 -0.6 2.2 -2 0 -1.8 -0.7 -2 -5.5 -2 -4.8 0 -5.5 0.3 -5.5 1.9 0 2.2 1.7 3.2 4.5 2.6 1.1 -0.3 3 -0.5 4.3 -0.5z"/>
  <path d="M748 642.2 l0 -7.8 7.9 -0.2 c10.1 -0.3 11.1 0.5 11.1 9.4 0 5.7 -0.2 6.4 -2 6.4 -1.6 0 -1.9 -0.8 -2.2 -6.2 l-0.3 -6.3 -5 0 -5 0 -0.3 6.3 c-0.3 5.4 -0.6 6.2 -2.2 6.2 -1.8 0 -2 -0.7 -2 -7.8z"/>
  <path d="M774 648 c-2.9 -2.9 -2.7 -8.4 0.5 -11.5 1.9 -2 3.4 -2.5 7.5 -2.5 3.8 0 5 0.4 5 1.5 0 1.1 -1.1 1.5 -4.3 1.5 -4.9 0 -6.7 1.3 -6.7 5 0 3.8 1.8 5 7.2 5 2.6 0 4.8 0.4 4.8 0.9 0 2.8 -11.2 2.9 -14 0.1z"/>
  <path d="M793.6 647.9 c-2 -1.6 -2.6 -2.9 -2.6 -5.9 0 -5.4 3.4 -8 10.7 -8 6.5 0 10.3 2.9 10.3 8 0 1.9 -0.9 4 -2.5 5.5 -3.3 3.3 -11.9 3.6 -15.9 0.4z m13.6 -3.4 c0.8 -1.9 0.8 -3.1 0 -5 -1 -2.1 -1.8 -2.5 -5.5 -2.5 -4.9 0 -6.7 1.3 -6.7 5 0 3.7 1.8 5 6.7 5 3.7 0 4.5 -0.4 5.5 -2.5z"/>
  <path d="M830.5 647.6 c-3.5 -3.5 -4.3 -9.1 -1.9 -13.5 2.5 -4.7 5.6 -6.1 13.2 -6.1 5.2 0 6.2 0.3 6.2 1.8 0 1.4 -0.9 1.7 -5.9 1.7 -4.4 0 -6.4 0.5 -8 1.9 -2.9 2.6 -2.9 8.8 0 11.7 1.9 1.9 2.8 2 8.5 1.4 5.2 -0.5 6.4 -0.4 6.4 0.8 0 1.7 -4.2 2.7 -11.2 2.7 -3.8 0 -5.4 -0.5 -7.3 -2.4z"/>
  <path d="M854.9 648.1 c-1.8 -1.4 -2.4 -2.9 -2.4 -6.1 0 -5.6 2.9 -8 9.5 -8 5.5 0 8.6 2 9.6 6.3 l0.6 2.7 -8.1 0 c-7.9 0 -8.1 0.1 -7.1 2 0.9 1.7 2.1 2 7.5 2 3.6 0 6.5 0.4 6.5 0.9 0 2.8 -12.7 3 -16.1 0.2z m13.1 -8.9 c0 -3.2 -7.7 -4.4 -10.4 -1.6 -0.9 0.8 -1.6 1.7 -1.6 2 0 0.2 2.7 0.4 6 0.4 3.3 0 6 -0.4 6 -0.8z"/>
  <path d="M877 642.2 l0 -7.8 7.6 -0.2 c10.6 -0.3 11.4 0.3 11.4 8.8 0 6.3 -0.2 7 -2 7 -1.6 0 -1.9 -0.8 -2.2 -6.2 -0.3 -6.1 -0.4 -6.3 -3.2 -6.6 -1.5 -0.2 -3.9 -0.1 -5.2 0.2 -2.2 0.6 -2.4 1.2 -2.4 6.6 0 5.3 -0.2 6 -2 6 -1.8 0 -2 -0.7 -2 -7.8z"/>
  <path d="M904.6 647.8 c-0.9 -1.2 -1.6 -4.2 -1.6 -6.5 0 -3.2 -0.4 -4.3 -1.5 -4.3 -0.8 0 -1.5 -0.7 -1.5 -1.5 0 -0.8 0.7 -1.5 1.5 -1.5 0.8 0 1.7 -1.1 2.1 -2.5 0.3 -1.4 1.2 -2.5 2 -2.5 0.8 0 1.4 1 1.4 2.5 0 2.2 0.4 2.5 3.5 2.5 2.4 0 3.5 0.5 3.5 1.5 0 1 -1.1 1.5 -3.5 1.5 -3.3 0 -3.5 0.2 -3.5 3.4 0 5.2 0.9 6.6 4.1 6.6 1.9 0 2.9 0.5 2.9 1.5 0 2.6 -7.5 2 -9.4 -0.7z"/>
  <path d="M919 642.2 l0 -7.8 5.5 -0.1 c4 -0.1 5.5 0.2 5.5 1.2 0 0.8 -1.3 1.5 -3.2 1.7 -3.3 0.3 -3.3 0.3 -3.6 6.6 -0.3 5.4 -0.6 6.2 -2.2 6.2 -1.8 0 -2 -0.7 -2 -7.8z"/>
  <path d="M934.1 648.6 c-1.9 -2.2 -0.9 -5.9 1.9 -7.4 1.4 -0.7 4.3 -1.1 6.8 -0.9 3.1 0.3 4.2 0.1 4.2 -0.9 0 -2 -4.9 -3.6 -8.7 -2.9 -2.6 0.5 -3.3 0.2 -3.3 -1 0 -1.2 1.3 -1.5 6.1 -1.5 9.1 0 9.9 0.7 9.9 8.8 l0 6.8 -7.9 0.2 c-5.9 0.2 -8.1 -0.1 -9 -1.2z m11.2 -1.6 c1 0 1.7 -0.8 1.7 -2 0 -1.7 -0.7 -2 -5 -2 -4.3 0 -5 0.3 -5 1.9 0 2.2 1.7 3.2 4.5 2.6 1.1 -0.3 2.8 -0.5 3.8 -0.5z"/>
  <path d="M958 638.5 c0 -10.8 0.1 -11.5 2 -11.5 1.9 0 2 0.7 2 11.5 0 10.8 -0.1 11.5 -2 11.5 -1.9 0 -2 -0.7 -2 -11.5z"/>
  <path d="M668.5 573.5 l-2.5 -2.4 0 -70.8 c0 -43.3 -0.4 -72.1 -1 -74.2 -1.1 -3.9 -5.1 -8.6 -9.2 -10.7 -2 -1 -6.7 -1.4 -17.8 -1.4 l-15.2 0 -2.9 -2.9 c-3.4 -3.5 -3.6 -5.9 -0.8 -9.5 l2 -2.6 17 0 c14.2 0 17.7 0.3 21.9 1.9 7.3 2.8 13.1 8 17.1 15.3 l3.4 6.3 0.3 74.3 0.2 74.2 -2.4 2.5 c-3.2 3.2 -7 3.2 -10.1 0z"/>
  <path d="M715.5 573.9 c-6.4 -3.7 -5.9 -11.3 0.9 -13.9 1.5 -0.5 9.7 -1 18.1 -1 24 0 20.6 2.1 59.1 -36.1 26.3 -26.2 33.1 -32.3 37.4 -34.2 l5.2 -2.3 -4.8 -1.9 c-4.1 -1.5 -9.9 -6.8 -36.9 -33.6 -25.1 -24.9 -33.1 -32.3 -37 -34 -4.4 -2 -7.2 -2.3 -23 -2.8 -19.2 -0.6 -22 -1.3 -23.1 -5.6 -1 -4 0.4 -7.3 3.8 -9.1 2.7 -1.4 5.6 -1.6 19.2 -1.1 29.6 1 30.2 1.3 70.7 41.4 l31.6 31.3 4.9 0 4.9 0 29.5 -29.8 c40.3 -40.8 41.2 -41.4 69 -42 16.1 -0.4 17.7 -0.2 19.2 1.5 3 3.3 3.2 6.7 0.5 9.9 l-2.5 2.9 -15.9 0.5 c-23.4 0.8 -20.9 -0.8 -58.8 37 -24.8 24.7 -32 31.4 -36.3 33.3 l-5.2 2.4 4.7 1.8 c4 1.5 10.1 7.1 36.8 33.5 38.5 38.1 35.5 36.2 58.8 37 l15.9 0.5 2.4 2.8 c3 3.5 3 5.9 0 9.4 l-2.4 2.8 -14.9 -0.1 c-11 0 -16.3 -0.5 -20.8 -1.8 -13.3 -3.9 -16 -6.1 -49.6 -39.3 l-31.6 -31.3 -4.3 0 -4.4 0 -30.5 30.4 c-17.8 17.6 -33 31.9 -36.2 33.9 -10.3 6.5 -16.3 8 -35.4 8.4 -11.7 0.3 -17.6 0 -19 -0.8z"/>
 </g>
</svg>