<?xml version="1.0" encoding="utf-8"?>
<!-- Generator: Adobe Illustrator 25.0.0, SVG Export Plug-In . SVG Version: 6.00 Build 0)  -->
<svg version="1.1" xmlns="http://www.w3.org/2000/svg" xmlns:xlink="http://www.w3.org/1999/xlink" x="0px" y="0px"
	 viewBox="0 0 340.2 226.8" style="enable-background:new 0 0 340.2 226.8;" xml:space="preserve">
<style type="text/css">
	.st0{display:none;}
	.st1{display:none;fill:none;}
	.st2{fill:#FFE301;}
	.st3{fill:#46292B;}
</style>
<g id="Слой_1" class="st0">
	
		<image style="display:inline;overflow:visible;" width="500" height="172" xlink:href="../KakaoPay.png"  transform="matrix(0.868 0 0 0.868 -46.9213 38.7378)">
	</image>
</g>
<g id="Слой_2">
	<rect x="-46.9" y="38.7" class="st1" width="433.7" height="149.5"/>
	<g>
		<rect x="8.5" y="57.6" class="st2" width="323.2" height="111.6"/>
		<polygon class="st3" points="68.2,90.3 64.4,90.3 64.4,127.1 68.2,127.1 68.3,109 83.8,127.1 88.9,126.5 73.1,108 88.1,90.3 
			83.8,90.3 68.3,107.8 		"/>
		<polygon class="st3" points="121.9,89.7 118,89.6 118,127.1 121.9,127.2 121.8,113.1 132.9,127.1 137.9,127.1 125.7,112.6 
			137.3,99.3 132.9,99.3 121.9,111.3 		"/>
		<path class="st3" d="M105.8,99.9c-2.6-0.7-7.5-0.8-11.7,0.1c-0.5,0.1-0.6,0.6-0.6,0.6c0,0-0.2,2,0,2.4l0.6,0.1c1.8,0,2.6,0,7.5,0
			c2.9,0,6.1,0.3,6.1,3.9c0,2.7,0,3,0,3.5L99,111c-2.9,0.3-7.2,1.5-6.9,9.1l0,0c0,0.7,0.8,6.4,5.1,6.8c1.5,0.3,4.1,0.3,5.6,0
			c3.8-0.7,5.5-1.8,5.5-1.8c0,0.3,0,2,0,2h3.9c0-2.4,0.1-11.3-0.2-20.4C111.8,103.6,109.3,100.8,105.8,99.9z M103.7,123.4
			c-9.6,2.6-7.7-6.4-7.1-7.4c1.2-1.8,2.2-2,5-2.1l6.1,0l0,8C106.7,122.5,105.2,123,103.7,123.4z"/>
		<path class="st3" d="M187.4,113.2c-0.1-11-3.5-13.8-11.1-13.8c-7.7,0-10.6,4.3-10.8,14c-0.2,11.8,5.6,14.5,10.8,14.4
			C185,127.7,187.5,122.8,187.4,113.2z M182.9,113.5c-0.2,8.3-1.8,10.1-6.3,10.2c-5.1,0.1-6.5-2.9-6.4-10.2
			c0.1-6.4,1.1-10.6,6.3-10.7C181.7,102.8,183,107,182.9,113.5z"/>
		<path class="st3" d="M202.9,90.2c-4.2,0-4.9-0.3-6.6,0.8l-0.1,36.2h7.7v-13.6h5.9c10-0.2,13.1-4,12.9-11.3c0-1.1,0.3-4.9-1.9-7.7
			C216.6,89.3,210.8,90.1,202.9,90.2z M208.2,107.1l-4.3,0l0-10.4l4.2,0.1c5.3,0.1,6.9,1.9,6.9,4.9
			C215.1,104.5,213.6,106.9,208.2,107.1z"/>
		<path class="st3" d="M248.5,107.6c0-5.6-2.6-10.5-17.2-8.8l-3.5,0.5l0,5.8c2.1,0,12.8-1.9,13,0.9c0.1,1.5,0,3.8,0,4.3l-4.8-0.1
			c-5.8-0.4-8.6,2.6-9.5,5.2c-0.7,2.2-0.4,5.6-0.2,6.3c0.6,2.3,2.3,5.1,7,5.3c7.3,0.3,8.1-2.5,8.1-2.4c0,0.4,0,1,0,2.4l7.1,0
			C248.5,124.8,248.5,116.7,248.5,107.6z M240.8,114.9l0.1,5.2c-7.1,2.4-7.2,0.4-7.2-2.1C233.6,114.6,237.2,114.6,240.8,114.9z"/>
		<path class="st3" d="M260.1,98.7l-7.7,0c1.2,6.8,5.2,24.4,7.8,27.1c0.5,0.5,2,0.9,3.1,0.5c0,2.9,0.7,4.5-5.5,4.4l-4.8-0.1l0,5.5
			c0,0,3,0.9,11.5,0.3c4.8-0.3,5.5-6.1,6.4-9.2c3.3-10.7,6.8-20.6,7.9-28.5l-8.3,0l-5,22L260.1,98.7z"/>
		<path class="st3" d="M154.2,99.8c-2.6-0.7-7.5-0.8-11.7,0.1c-0.5,0.1-0.6,0.6-0.6,0.6c0,0-0.2,2,0,2.4l0.6,0.1c1.8,0,2.6,0,7.5,0
			c2.9,0,6.1,0.3,6.1,3.9c0,2.7,0,3,0,3.5l-8.7,0.3c-2.9,0.3-7.2,1.5-6.9,9.1l0,0c0,0.7,0.8,6.4,5.1,6.8c1.5,0.3,4.1,0.3,5.6,0
			c3.8-0.7,5.5-1.8,5.5-1.8c0,0.3,0,2,0,2h3.9c0-2.4,0.1-11.3-0.2-20.4C160.2,103.5,157.7,100.7,154.2,99.8z M152.1,123.3
			c-9.6,2.6-7.7-6.4-7.1-7.4c1.2-1.8,2.2-2,5-2.1l6.1,0l0,8C155.1,122.4,153.6,122.9,152.1,123.3z"/>
	</g>
</g>
</svg>
