<svg width="160" height="102" viewBox="0 0 160 102" fill="none" xmlns="http://www.w3.org/2000/svg">
<rect x="10.9459" y="23.5674" width="107.838" height="76.4863" rx="6.62161" fill="white" stroke="white" stroke-width="1.89189"/>
<mask id="mask0_506_3746" style="mask-type:alpha" maskUnits="userSpaceOnUse" x="10" y="22" width="110" height="79">
<rect x="10.9459" y="23.5674" width="107.838" height="76.4863" rx="6.62161" fill="white" stroke="white" stroke-width="1.89189"/>
</mask>
<g mask="url(#mask0_506_3746)">
<rect x="83.1514" y="22.6215" width="36.5765" height="78.3782" fill="#F44653"/>
<path fill-rule="evenodd" clip-rule="evenodd" d="M10 101H46.5765V22.6215H10V101Z" fill="#1035BB"/>
</g>
<path d="M18.1497 23.6215H111.58V21.6215H18.1497V23.6215ZM118.729 30.7711V92.85H120.729V30.7711H118.729ZM111.58 99.9997H18.1497V102H111.58V99.9997ZM11 92.85V30.7711H9V92.85H11ZM18.1497 99.9997C14.201 99.9997 11 96.7987 11 92.85H9C9 97.9032 13.0965 102 18.1497 102V99.9997ZM118.729 92.85C118.729 96.7986 115.528 99.9997 111.58 99.9997V102C116.633 102 120.729 97.9032 120.729 92.85H118.729ZM111.58 23.6215C115.528 23.6215 118.729 26.8225 118.729 30.7711H120.729C120.729 25.7179 116.633 21.6215 111.58 21.6215V23.6215ZM18.1497 21.6215C13.0964 21.6215 9 25.7179 9 30.7711H11C11 26.8225 14.201 23.6215 18.1497 23.6215V21.6215Z" fill="#E0E0E0"/>
<rect x="97.0264" y="1.00012" width="52.9729" height="52.9729" rx="8.82881" fill="black"/>
<path fill-rule="evenodd" clip-rule="evenodd" d="M109.747 22.5673H137.274C137.545 22.5959 137.817 22.5338 138.049 22.3907C138.281 22.2476 138.458 22.0316 138.554 21.7767C138.649 21.5217 138.658 21.2423 138.577 20.9821C138.497 20.722 138.332 20.496 138.109 20.3395L124.346 10.7169C124.099 10.5498 123.808 10.4604 123.511 10.4604C123.213 10.4604 122.922 10.5498 122.675 10.7169L108.912 20.3395C108.689 20.496 108.524 20.722 108.444 20.9821C108.363 21.2423 108.372 21.5217 108.467 21.7767C108.563 22.0316 108.74 22.2476 108.972 22.3907C109.204 22.5338 109.476 22.5959 109.747 22.5673ZM138.647 36.1885H108.378V40.7289H138.647V36.1885ZM112.919 25.5942H118.973V33.1615H112.919V25.5942ZM134.108 25.5942H128.054V33.1615H134.108V25.5942Z" fill="white"/>
</svg>
