<?xml version="1.0" encoding="UTF-8"?>
<svg width="88px" height="38px" viewBox="0 0 88 38" version="1.1" xmlns="http://www.w3.org/2000/svg" xmlns:xlink="http://www.w3.org/1999/xlink">
    <!-- Generator: Sketch 51.3 (57544) - http://www.bohemiancoding.com/sketch -->
    <title>giropay-logo_dsg_155_desktop</title>
    <desc>Created with Sketch.</desc>
    <defs></defs>
    <g id="DSG-155_logotype_V2" stroke="none" stroke-width="1" fill="none" fill-rule="evenodd">
        <g id="DSG_155_logo_desktop-Copy" transform="translate(-148.000000, -424.000000)" fill-rule="nonzero">
            <g id="giropay-logo_dsg_155_desktop" transform="translate(148.000000, 424.000000)">
                <path d="M0,6.81207349 C0,3.0519685 3.05914221,0 6.8234763,0 L81.1665914,0 C84.9309255,0 87.9900677,3.0519685 87.9900677,6.81207349 L87.9900677,31.167979 C87.9900677,34.928084 84.9408578,37.9800525 81.1665914,37.9800525 L6.8234763,37.9800525 C3.05914221,37.9900262 0,34.9380577 0,31.1779528 L0,6.81207349 Z" id="_92653320" fill="#000268"></path>
                <path d="M2.80090293,7.05144357 L2.80090293,30.9485564 C2.80090293,33.3023622 4.70790068,35.2073491 7.06185102,35.2073491 L46.0063205,35.2073491 L46.0063205,2.79265092 L7.06185102,2.79265092 C4.70790068,2.79265092 2.80090293,4.6976378 2.80090293,7.05144357 Z M56.0776524,18.880315 C56.0776524,20.4062992 55.3327314,21.4435696 54.0911964,21.4435696 C52.9986456,21.4435696 52.0848758,20.3963255 52.0848758,19 C52.0848758,17.5737533 52.8893905,16.5065617 54.0911964,16.5065617 C55.3625282,16.5165354 56.0776524,17.6136483 56.0776524,18.880315 Z M48.7873589,27.6073491 L52.0749436,27.6073491 L52.0749436,22.4209974 L52.1146727,22.4209974 C52.7404063,23.5580052 53.9819413,23.9769029 55.1241535,23.9769029 C57.9548533,23.9769029 59.4645598,21.6330709 59.4645598,18.8104987 C59.4645598,16.4965879 58.0243792,13.9931759 55.3923251,13.9931759 C53.8925508,13.9931759 52.5119639,14.6015748 51.8465011,15.9380577 L51.806772,15.9380577 L51.806772,14.2125984 L48.7774266,14.2125984 L48.7774266,27.6073491 L48.7873589,27.6073491 Z M63.9539503,20.7254593 C63.9539503,19.807874 64.827991,19.4587927 65.9404063,19.4587927 C66.4370203,19.4587927 66.9038375,19.4887139 67.3309255,19.5086614 C67.3309255,20.6257218 66.5462754,21.7627297 65.3047404,21.7627297 C64.5399549,21.7727034 63.9539503,21.3937008 63.9539503,20.7254593 Z M70.5887133,23.7574803 C70.4397291,23.0094488 70.4099323,22.2514436 70.4099323,21.5034121 L70.4099323,17.9427822 C70.4099323,15.0304462 68.3142212,13.9832021 65.8808126,13.9832021 C64.4803612,13.9832021 63.2487585,14.1826772 62.0866817,14.6614173 L62.1462754,16.8955381 C63.0600451,16.3769029 64.1128668,16.1774278 65.1756208,16.1774278 C66.3575621,16.1774278 67.3309255,16.5265092 67.3507901,17.8330709 C66.9336343,17.7632546 66.3476298,17.7034121 65.821219,17.7034121 C64.0731377,17.7034121 60.9146727,18.0524934 60.9146727,20.9648294 C60.9146727,23.0393701 62.593228,23.9669291 64.4704289,23.9669291 C65.821219,23.9669291 66.7349887,23.4383202 67.4799097,22.2414698 L67.5196388,22.2414698 C67.5196388,22.7401575 67.5693002,23.2288714 67.5891648,23.7475066 L70.5887133,23.7475066 L70.5887133,23.7574803 Z M72.0586907,27.6073491 C72.7340858,27.7569554 73.4094808,27.8267717 74.1047404,27.8267717 C77.1142212,27.8267717 77.8293454,25.4929134 78.7629797,23.0992126 L82.2492099,14.2125984 L78.9616253,14.2125984 L77.0049661,20.4461942 L76.9751693,20.4461942 L74.9291196,14.2125984 L71.393228,14.2125984 L75.2469526,23.9868766 C75.0085779,24.8346457 74.3927765,25.3034121 73.5882619,25.3034121 C73.131377,25.3034121 72.7340858,25.2435696 72.2871332,25.103937 L72.0586907,27.6073491 Z" id="_92186184" fill="#FFFFFF"></path>
                <path d="M10.8261851,18.9002625 C10.8261851,17.5937008 11.461851,16.5165354 12.6934537,16.5165354 C14.1733634,16.5165354 14.7891648,17.7034121 14.7891648,18.7706037 C14.7891648,20.2367454 13.8555305,21.224147 12.6934537,21.224147 C11.7002257,21.224147 10.8261851,20.3863517 10.8261851,18.9002625 Z M17.9674944,14.2026247 L14.9878104,14.2026247 L14.9878104,15.928084 L14.9580135,15.928084 C14.262754,14.7511811 13.130474,13.9832021 11.7300226,13.9832021 C8.77020316,13.9832021 7.43927765,16.1076115 7.43927765,18.9501312 C7.43927765,21.7727034 9.06817156,23.7574803 11.6704289,23.7574803 C12.9914221,23.7574803 14.0839729,23.2388451 14.868623,22.1217848 L14.9083521,22.1217848 L14.9083521,22.6404199 C14.9083521,24.5055118 13.8853273,25.4031496 11.9882619,25.4031496 C10.6176072,25.4031496 9.77336343,25.1139108 8.77020316,24.6152231 L8.6013544,27.2183727 C9.36613995,27.4976378 10.6672686,27.8267717 12.2365688,27.8267717 C16.0704289,27.8267717 17.9674944,26.560105 17.9674944,22.6404199 L17.9674944,14.2026247 Z M23.5196388,10.2230971 L20.2320542,10.2230971 L20.2320542,12.6467192 L23.5196388,12.6467192 L23.5196388,10.2230971 Z M20.2320542,23.7574803 L23.5196388,23.7574803 L23.5196388,14.2026247 L20.2320542,14.2026247 L20.2320542,23.7574803 Z M32.6672686,14.0929134 C32.3395034,14.0430446 31.9322799,13.9832021 31.5548533,13.9832021 C30.1345372,13.9832021 29.310158,14.7511811 28.7440181,15.967979 L28.7042889,15.967979 L28.7042889,14.2125984 L25.7146727,14.2125984 L25.7146727,23.7674541 L29.0022573,23.7674541 L29.0022573,19.7380577 C29.0022573,17.8629921 29.8663657,16.7459318 31.3959368,16.7459318 C31.7832957,16.7459318 32.1408578,16.7459318 32.5083521,16.855643 L32.6672686,14.0929134 Z M38.3286682,21.6629921 C36.8090293,21.6629921 36.193228,20.3963255 36.193228,18.9900262 C36.193228,17.5637795 36.8090293,16.2971129 38.3286682,16.2971129 C39.848307,16.2971129 40.4641084,17.5637795 40.4641084,18.9900262 C40.4641084,20.3963255 39.8383747,21.6629921 38.3286682,21.6629921 Z M38.3286682,23.9769029 C41.4672686,23.9769029 43.8609481,22.1417323 43.8609481,18.9900262 C43.8609481,15.8183727 41.4672686,13.9832021 38.3286682,13.9832021 C35.1900677,13.9832021 32.7963883,15.8183727 32.7963883,18.9900262 C32.7963883,22.1417323 35.1801354,23.9769029 38.3286682,23.9769029 Z" id="_47303032" fill="#FF0007"></path>
            </g>
        </g>
    </g>
</svg>