<svg width="65" height="33" viewBox="0 0 65 33" fill="none" xmlns="http://www.w3.org/2000/svg">
<rect width="65" height="33" rx="5" fill="#FFB3C7"/>
<path fill-rule="evenodd" clip-rule="evenodd" d="M11 6.5H13.1212V16.046H11V6.5ZM18.5253 6.5H16.408C16.4112 7.35949 16.2148 8.20775 15.8345 8.97622C15.4542 9.74468 14.9007 10.4119 14.2186 10.9239L13.3798 11.5598L16.6302 16.0464H19.3025L16.3119 11.9181C17.0172 11.2086 17.5761 10.3642 17.9561 9.43403C18.336 8.50388 18.5296 7.50654 18.5253 6.5ZM19.9337 6.50182H21.9768V16.0433H19.9337V6.50182ZM47.0046 9.26611C47.6292 9.30149 48.2326 9.50868 48.7499 9.86531V9.44316H50.7021V16.0432H48.7499V15.6215C48.2326 15.9782 47.6292 16.1854 47.0046 16.2208C46.3796 16.2561 45.7571 16.1184 45.2041 15.8224C44.651 15.5263 44.1879 15.0832 43.865 14.5407C43.5421 13.9982 43.3716 13.3768 43.3716 12.7434C43.3716 12.11 43.5421 11.4887 43.865 10.9461C44.1879 10.4036 44.651 9.9605 45.2041 9.66447C45.7571 9.36847 46.3796 9.23073 47.0046 9.26611ZM46.0661 14.112C46.3303 14.3093 46.6463 14.4239 46.974 14.4416C47.4313 14.4535 47.8743 14.2814 48.2058 13.963C48.5374 13.6447 48.7308 13.206 48.7433 12.7435C48.7433 12.411 48.6471 12.0858 48.4662 11.8082C48.2857 11.5305 48.0288 11.3125 47.7267 11.1812C47.425 11.0499 47.0917 11.011 46.7685 11.0694C46.4453 11.1278 46.1456 11.2808 45.9075 11.5095C45.669 11.7383 45.5023 12.0328 45.4273 12.3565C45.3527 12.6803 45.3735 13.0192 45.487 13.3311C45.6002 13.6431 45.8019 13.9146 46.0661 14.112ZM39.9047 9.26554C39.5207 9.24257 39.137 9.31444 38.7868 9.4749C38.4365 9.6354 38.1299 9.87968 37.8937 10.1867V9.44345H35.9494V16.0433H37.9171V12.5749C37.9019 12.3756 37.9294 12.1754 37.9975 11.9878C38.0656 11.8003 38.1729 11.6298 38.3119 11.4879C38.451 11.3461 38.6186 11.2362 38.8033 11.1657C38.9881 11.0953 39.1856 11.0659 39.3825 11.0797C40.2407 11.0797 40.7337 11.5986 40.7337 12.5612V16.0433H42.6839V11.8461C42.6839 10.3101 41.4774 9.26554 39.9047 9.26554ZM26.4082 9.26611C27.033 9.30149 27.6364 9.50868 28.1535 9.86531V9.44316H30.1057V16.0432H28.1535V15.6215C27.6364 15.9782 27.033 16.1854 26.4082 16.2208C25.7835 16.2561 25.161 16.1184 24.6078 15.8224C24.0547 15.5263 23.5917 15.0832 23.2688 14.5407C22.9459 13.9982 22.7753 13.3768 22.7753 12.7434C22.7753 12.11 22.9459 11.4887 23.2688 10.9461C23.5917 10.4036 24.0547 9.9605 24.6078 9.66447C25.161 9.36847 25.7835 9.23073 26.4082 9.26611ZM25.4697 14.1121C25.7341 14.3094 26.0498 14.424 26.3778 14.4416C26.8347 14.4535 27.2777 14.2814 27.6093 13.963C27.941 13.6446 28.1343 13.206 28.1468 12.7435C28.1468 12.411 28.0505 12.0858 27.8698 11.8081C27.6892 11.5305 27.432 11.3125 27.1302 11.1812C26.8285 11.0499 26.4953 11.011 26.1719 11.0694C25.8485 11.1278 25.5491 11.2808 25.3108 11.5096C25.0724 11.7384 24.9056 12.0329 24.8309 12.3567C24.7562 12.6804 24.7768 13.0193 24.8904 13.3313C25.0039 13.6433 25.2053 13.9147 25.4697 14.1121ZM33.1259 10.3029V9.4432H31.1271V16.0434H33.1302V12.9621C33.1302 11.9224 34.2435 11.3636 35.016 11.3636C35.0201 11.3636 35.024 11.3638 35.028 11.364C35.0317 11.3642 35.0354 11.3644 35.0392 11.3644V9.44359C34.6772 9.43374 34.3177 9.50579 33.9867 9.65445C33.6557 9.80307 33.3616 10.0246 33.1259 10.3029ZM52.094 13.9114C52.2953 13.7751 52.5324 13.7024 52.7748 13.7023C52.9355 13.7023 53.0949 13.7344 53.2438 13.7967C53.3924 13.8591 53.5275 13.9504 53.6414 14.0656C53.7549 14.1808 53.8452 14.3175 53.907 14.468C53.9684 14.6185 54 14.7798 54 14.9427C54 15.188 53.9281 15.4278 53.7938 15.6318C53.6591 15.8357 53.4678 15.9947 53.2438 16.0886C53.0199 16.1825 52.7734 16.207 52.5356 16.1592C52.2981 16.1113 52.0797 15.9932 51.9082 15.8198C51.737 15.6463 51.6204 15.4253 51.5728 15.1847C51.5256 14.9441 51.5499 14.6947 51.6426 14.4681C51.7353 14.2414 51.8926 14.0477 52.094 13.9114Z" fill="black"/>
<path d="M19.5138 25.1373H18.5V20.5H20.7276C21.7628 20.5 22.3269 21.1813 22.3269 21.9948C22.3269 22.8013 21.7557 23.4757 20.7276 23.4757H19.5138V25.1373ZM21.2916 21.9878C21.2916 21.6054 20.9917 21.3482 20.5919 21.3482H19.5138V22.6275H20.5919C20.9917 22.6275 21.2916 22.3772 21.2916 21.9878Z" fill="black"/>
<path d="M25.7717 25.1373H24.865V24.7897C24.6294 25.0608 24.2224 25.2207 23.7726 25.2207C23.2228 25.2207 22.5731 24.8592 22.5731 24.1083C22.5731 23.3227 23.2228 23.0377 23.7726 23.0377C24.2295 23.0377 24.6365 23.1767 24.865 23.4479V22.982C24.865 22.6414 24.5651 22.4189 24.1082 22.4189C23.7369 22.4189 23.3942 22.551 23.1015 22.8152L22.7588 22.2242C23.18 21.8627 23.7226 21.6958 24.2652 21.6958C25.0506 21.6958 25.7717 22.0017 25.7717 22.9681V25.1373ZM24.865 24.3308V23.9137C24.715 23.719 24.4294 23.6217 24.1367 23.6217C23.7797 23.6217 23.487 23.8094 23.487 24.1292C23.487 24.4421 23.7797 24.6228 24.1367 24.6228C24.4294 24.6228 24.715 24.5255 24.865 24.3308Z" fill="black"/>
<path d="M26.5497 26.4513L26.6854 25.6587C26.7639 25.6935 26.8853 25.7144 26.9709 25.7144C27.2065 25.7144 27.3636 25.6518 27.4493 25.471L27.5778 25.186L26.1784 21.7793H27.1494L28.049 24.1153L28.9486 21.7793H29.9268L28.3061 25.6866C28.049 26.3192 27.5921 26.4861 26.9995 26.5C26.8924 26.5 26.6639 26.4791 26.5497 26.4513Z" fill="black"/>
<path d="M36.4421 25.1373H35.464L33.1936 22.0226V25.1373H32.1797V20.5H33.2221L35.4283 23.5035V20.5H36.4421V25.1373Z" fill="black"/>
<path d="M38.9589 25.2207C37.8237 25.2207 37.1383 24.4143 37.1383 23.4548C37.1383 22.5023 37.8237 21.6958 38.9589 21.6958C40.1013 21.6958 40.7867 22.5023 40.7867 23.4548C40.7867 24.4143 40.1013 25.2207 38.9589 25.2207ZM38.9589 24.4351C39.523 24.4351 39.8443 23.9832 39.8443 23.4548C39.8443 22.9334 39.523 22.4815 38.9589 22.4815C38.3949 22.4815 38.0808 22.9334 38.0808 23.4548C38.0808 23.9832 38.3949 24.4351 38.9589 24.4351Z" fill="black"/>
<path d="M45.4505 25.1373H44.4866L43.7584 22.8499L43.0301 25.1373H42.0591L41.0096 21.7793H41.952L42.5946 24.0388L43.3514 21.7793H44.1582L44.915 24.0388L45.5576 21.7793H46.5L45.4505 25.1373Z" fill="black"/>
</svg>
