<svg xmlns="http://www.w3.org/2000/svg" width="86" height="15" viewBox="0 0 86 15"><g fill="#8DC640"><path d="M75.845 6.39c-.461.313-1.13.469-2.047.469h-.908l.697-3.668h.668c.76 0 1.315.12 1.698.362.299.19.654.565.654 1.278 0 .86-.413 1.323-.762 1.559zm-54.189 4.602h-7.03l.454-2.397h4.41l.5-2.7h-4.367l.423-2.371h7.017l-1.407 7.468zm57.976-9.526C78.6.776 77.035.428 74.984.428h-5.37l-1.997 10.565h-7.035l.45-2.397h4.239l.504-2.693-4.236.008.453-2.387h4.366l.58-3.096h-8.867L56.177 10.45h-3.252L54.835.428h-4.636L48.303 10.45h-3.17L47.044.428h-4.63l-2.002 10.565h-7.085l.446-2.397h4.258l.501-2.677-4.251-.004.45-2.39h4.414l.578-3.097H12.1L10.527 8.8 7.395.428H2.588L0 14.09h4.591l1.566-8.603 3.04 8.603h16.456l2.001-10.567h2.575L28.227 14.09h43.301l1.254-6.671 2.033 6.67h4.594l-2.105-5.45.481-.1c1.059-.222 1.888-.698 2.462-1.41.576-.72.869-1.645.869-2.755 0-1.293-.484-2.244-1.484-2.909zm3.786 11.009l.626-.032a.948.948 0 00.31-.056.337.337 0 00.211-.333.324.324 0 00-.126-.246c-.078-.062-.2-.087-.364-.08l-.696.034.04.713zm-.232 1.213l-.112-2.149.978-.048c.196-.01.345.002.45.036a.49.49 0 01.256.192.58.58 0 01.107.319.53.53 0 01-.131.393c-.096.11-.248.184-.458.223.08.033.14.065.181.098.09.072.175.163.257.274l.411.566-.364.018-.314-.432a3.977 3.977 0 00-.226-.286.67.67 0 00-.156-.136.441.441 0 00-.136-.051.88.88 0 00-.163-.002l-.336.016.048.956-.292.013z"/><path d="M82.231 12.648a1.63 1.63 0 01.439-1.2 1.72 1.72 0 011.184-.548c.94-.048 1.745.66 1.794 1.578l.003.085c0 .881-.712 1.62-1.624 1.665-.942.047-1.746-.662-1.796-1.58m1.603-2.091a2.075 2.075 0 00-1.424.66 1.968 1.968 0 00-.528 1.45c.059 1.105 1.029 1.958 2.164 1.903 1.132-.057 2.01-1.003 1.951-2.109-.057-1.107-1.027-1.96-2.163-1.904"/></g></svg>