<svg width="160" height="100" viewBox="0 0 160 100" fill="none" xmlns="http://www.w3.org/2000/svg">
<rect width="160" height="100" fill="#FEC514"/>
<g clip-path="url(#clip0_104_16)">
<path d="M59.8137 40.764C59.5832 40.764 59.3874 40.9313 59.3514 41.1592L56.6832 58.0799C56.6735 58.1417 56.6773 58.2049 56.6944 58.2651C56.7114 58.3253 56.7413 58.3811 56.782 58.4286C56.8226 58.4762 56.8731 58.5143 56.9299 58.5405C56.9868 58.5667 57.0486 58.5802 57.1111 58.5803H60.2754C60.5055 58.5803 60.7017 58.4126 60.7377 58.1851L61.5215 53.2162C61.5572 52.9886 61.7533 52.821 61.9838 52.821H64.8606C68.222 52.821 71.0753 50.3684 71.5965 47.0452C72.122 43.6938 69.5038 40.7713 65.7929 40.764H59.8137ZM62.8896 44.5414H65.1913C67.0863 44.5414 67.7034 45.6595 67.5083 46.896C67.3132 48.1352 66.3548 49.0479 64.5217 49.0479H62.1789L62.8896 44.5414ZM78.0321 45.6916C77.2331 45.6945 76.3137 45.8582 75.2816 46.2882C72.9141 47.275 71.7771 49.3145 71.2942 50.8013C71.2942 50.8013 69.7574 55.3377 73.2295 57.8299C73.2295 57.8299 76.4497 60.2292 80.0745 57.6821L80.012 58.0799C80.0023 58.1416 80.0061 58.2048 80.0232 58.2649C80.0402 58.3251 80.07 58.3808 80.1106 58.4284C80.1512 58.4759 80.2016 58.5141 80.2583 58.5403C80.3151 58.5665 80.3768 58.5802 80.4393 58.5803H83.4431C83.6736 58.5803 83.8694 58.4126 83.9055 58.1851L85.7326 46.5977C85.7424 46.5359 85.7387 46.4727 85.7218 46.4125C85.7048 46.3522 85.675 46.2964 85.6344 46.2488C85.5938 46.2012 85.5433 46.1629 85.4865 46.1367C85.4297 46.1104 85.3679 46.0968 85.3054 46.0967H82.3015C82.071 46.0967 81.8749 46.2643 81.8392 46.4919L81.741 47.1156C81.741 47.1156 80.4294 45.6826 78.0321 45.6916ZM78.1303 49.3515C78.4752 49.3515 78.7907 49.3991 79.0738 49.4901C80.3699 49.9061 81.1047 51.1512 80.8921 52.5008C80.6298 54.1627 79.267 55.3863 77.5192 55.3863C77.1746 55.3863 76.8591 55.339 76.5756 55.248C75.2799 54.832 74.5405 53.5869 74.7531 52.2373C75.0154 50.5755 76.3825 49.3515 78.1303 49.3515Z" fill="#003087"/>
<path d="M103.07 40.764C102.84 40.764 102.644 40.9313 102.608 41.1592L99.9398 58.0799C99.9301 58.1417 99.9339 58.2049 99.951 58.2651C99.968 58.3253 99.9979 58.3811 100.039 58.4286C100.079 58.4762 100.13 58.5143 100.187 58.5405C100.243 58.5667 100.305 58.5802 100.368 58.5803H103.532C103.762 58.5803 103.958 58.4126 103.994 58.1851L104.778 53.2162C104.814 52.9886 105.01 52.821 105.24 52.821H108.117C111.479 52.821 114.332 50.3684 114.852 47.0452C115.378 43.6938 112.76 40.7713 109.05 40.764H103.07ZM106.146 44.5414H108.448C110.343 44.5414 110.96 45.6595 110.765 46.896C110.57 48.1352 109.612 49.0479 107.778 49.0479H105.436L106.146 44.5414ZM121.288 45.6916C120.489 45.6945 119.57 45.8582 118.538 46.2882C116.17 47.275 115.033 49.3145 114.55 50.8013C114.55 50.8013 113.014 55.3377 116.486 57.8299C116.486 57.8299 119.706 60.2292 123.331 57.6821L123.269 58.0799C123.259 58.1417 123.263 58.2049 123.28 58.2651C123.297 58.3253 123.327 58.3811 123.367 58.4286C123.408 58.4762 123.459 58.5143 123.515 58.5405C123.572 58.5667 123.634 58.5802 123.697 58.5803H126.7C126.931 58.5803 127.126 58.4126 127.162 58.1851L128.99 46.5977C129 46.5358 128.996 46.4726 128.979 46.4123C128.962 46.352 128.932 46.2962 128.892 46.2485C128.851 46.2009 128.801 46.1627 128.744 46.1365C128.687 46.1102 128.625 46.0967 128.562 46.0967H125.558C125.328 46.0967 125.132 46.2643 125.096 46.4919L124.998 47.1156C124.998 47.1156 123.686 45.6826 121.288 45.6916ZM121.387 49.3515C121.732 49.3515 122.047 49.3991 122.33 49.4901C123.626 49.9061 124.361 51.1512 124.148 52.5008C123.886 54.1627 122.523 55.3863 120.775 55.3863C120.431 55.3863 120.115 55.339 119.832 55.248C118.536 54.832 117.797 53.5869 118.009 52.2373C118.272 50.5755 119.639 49.3515 121.387 49.3515Z" fill="#0070E0"/>
<path d="M87.158 46.0967C86.9199 46.0967 86.7506 46.3292 86.8233 46.5557L90.1165 56.7749L87.1388 61.5907C86.9943 61.8245 87.1623 62.1265 87.4371 62.1265H90.9565C91.0571 62.1264 91.1561 62.1003 91.2437 62.0509C91.3314 62.0014 91.4048 61.9302 91.4569 61.844L100.654 46.6291C100.795 46.3953 100.627 46.0964 100.354 46.0964H96.8345C96.7329 46.0965 96.633 46.123 96.5448 46.1734C96.4565 46.2238 96.3829 46.2963 96.3312 46.3838L92.7109 52.4959L90.8732 46.4291C90.8133 46.2316 90.6311 46.0964 90.4251 46.0964L87.158 46.0967Z" fill="#003087"/>
<path d="M132.403 40.764C132.173 40.764 131.977 40.9317 131.941 41.1592L129.272 58.0792C129.262 58.1411 129.266 58.2043 129.283 58.2646C129.3 58.3249 129.33 58.3808 129.37 58.4284C129.411 58.476 129.462 58.5143 129.518 58.5405C129.575 58.5667 129.637 58.5803 129.7 58.5803H132.864C133.094 58.5803 133.29 58.4126 133.326 58.1851L135.995 41.2644C136.004 41.2026 136 41.1395 135.983 41.0793C135.966 41.0192 135.937 40.9634 135.896 40.9159C135.855 40.8684 135.805 40.8302 135.748 40.804C135.692 40.7777 135.63 40.7641 135.567 40.764H132.403Z" fill="#0070E0"/>
<path d="M33.4344 40.764C33.2305 40.7642 33.0335 40.837 32.8785 40.9695C32.7236 41.1019 32.6209 41.2853 32.5891 41.4866L31.1846 50.3946C31.2501 49.9785 31.6085 49.672 32.0299 49.672H36.1455C40.2876 49.672 43.8024 46.6503 44.4446 42.5555C44.4924 42.2497 44.5195 41.9411 44.5257 41.6318C43.473 41.0798 42.2365 40.764 40.8816 40.764H33.4344Z" fill="#001C64"/>
<path d="M44.5259 41.6322C44.5197 41.9415 44.4926 42.2501 44.4448 42.5558C43.8026 46.6507 40.2875 49.6724 36.1457 49.6724H32.0301C31.6091 49.6724 31.2503 49.9786 31.1848 50.395L29.8933 58.5806L29.0844 63.7159C29.0687 63.8151 29.0746 63.9166 29.1018 64.0133C29.129 64.11 29.1769 64.1996 29.2422 64.276C29.3074 64.3524 29.3884 64.4137 29.4797 64.4558C29.5709 64.4978 29.6702 64.5196 29.7707 64.5195H34.2379C34.4417 64.5193 34.6388 64.4465 34.7937 64.314C34.9487 64.1816 35.0513 63.9982 35.0831 63.7969L36.2598 56.3338C36.2917 56.1324 36.3944 55.9489 36.5495 55.8165C36.7046 55.684 36.9018 55.6112 37.1058 55.6112H39.7359C43.878 55.6112 47.3928 52.5895 48.035 48.4947C48.4911 45.5884 47.0274 42.9438 44.5259 41.6322Z" fill="#0070E0"/>
<path d="M28.3592 34.8264C27.9382 34.8264 27.5794 35.1326 27.5139 35.5483L24.0084 57.7772C23.9419 58.1992 24.268 58.5808 24.6953 58.5808H29.8937L31.1844 50.3951L32.5889 41.4872C32.6208 41.2858 32.7235 41.1025 32.8784 40.97C33.0333 40.8376 33.2304 40.7647 33.4342 40.7646H40.8815C42.2367 40.7646 43.4729 41.0807 44.5255 41.6323C44.5976 37.9043 41.5214 34.8264 37.2919 34.8264H28.3592Z" fill="#003087"/>
</g>
<defs>
<clipPath id="clip0_104_16">
<rect width="112" height="29.6927" fill="white" transform="translate(24 34.8261)"/>
</clipPath>
</defs>
</svg>
