<svg xmlns="http://www.w3.org/2000/svg" xmlns:xlink="http://www.w3.org/1999/xlink" width="58" height="21" viewBox="0 0 58 21">
    <defs>
        <path id="a" d="M0 0h58v21H0z"/>
        <path id="c" d="M.003.139h146.468v111.197H.003z"/>
    </defs>
    <g fill="none" fill-rule="evenodd">
        <mask id="b" fill="#fff">
            <use xlink:href="#a"/>
        </mask>
        <g mask="url(#b)">
            <g transform="translate(-44.493 -46.038)">
                <mask id="d" fill="#fff">
                    <use xlink:href="#c"/>
                </mask>
                <path fill="#8A1E5E" fill-rule="nonzero" d="M90.283 47.34l4.803-.912v19.536h-4.803V47.34zm7.014 0v18.624h4.808V46.427l-4.808.912zm-13.86 18.624h4.807V51.675h-4.807v14.289zM51.676 53.697c-.61-.043-2.015-.14-2.015-1.482 0-1.616 2.022-1.616 2.784-1.616 1.335 0 3.064.417 4.3.809 0 0 .689.255 1.276.52l.054.015v-4.43L58 47.488c-1.458-.54-3.154-1.06-6.296-1.06-5.418 0-7.338 3.344-7.338 6.208 0 1.652.67 5.538 6.873 5.987.526.035 1.923.118 1.923 1.505 0 1.147-1.145 1.821-3.064 1.821-2.107 0-4.152-.572-5.395-1.112v4.57c1.859.513 3.956.77 6.409.77 5.298 0 7.67-3.164 7.67-6.299 0-3.554-2.655-5.866-7.106-6.181zm29.05-2.232c-4.44.15-6.695 2.264-6.695 6.46v8.039h4.849v-6.555c0-2.514.309-3.591 3.123-3.694V51.54c-.472-.108-1.276-.075-1.276-.075zm-13.036.193c-.104.285-.875 2.589-2.741 4.975V46.427l-4.958 1.037v18.5h4.958v-5.717c1.439 2.281 2.149 5.717 2.149 5.717h5.941c-.587-2.586-3.16-7.357-3.16-7.357 2.31-3.098 3.32-6.4 3.482-6.949H67.69zm18.151-1.352c1.308 0 2.368-1.127 2.368-2.511 0-1.388-1.06-2.51-2.368-2.51-1.31 0-2.369 1.122-2.369 2.51 0 1.384 1.059 2.51 2.369 2.51z" mask="url(#d)"/>
            </g>
        </g>
    </g>
</svg>
