<?xml version="1.0" encoding="UTF-8" standalone="no"?>
<!DOCTYPE svg PUBLIC "-//W3C//DTD SVG 1.1//EN" "http://www.w3.org/Graphics/SVG/1.1/DTD/svg11.dtd">
<svg width="100%" height="100%" viewBox="0 0 750 250" version="1.1" xmlns="http://www.w3.org/2000/svg" xmlns:xlink="http://www.w3.org/1999/xlink" xml:space="preserve" xmlns:serif="http://www.serif.com/" style="fill-rule:evenodd;clip-rule:evenodd;stroke-linejoin:round;stroke-miterlimit:2;">
    <g>
        <g>
            <path d="M275.1,175L275.1,92.9L245.5,92.9L245.5,75L324.2,75L324.2,93L294.6,93L294.6,175L275.1,175Z" style="fill:rgb(14,224,110);fill-rule:nonzero;"/>
            <path d="M322,175L322,102.3L340.1,102.3L340.1,113.8C344.8,104.1 350.7,102.3 357,102.3L364.1,102.3L364.1,120.5L357.9,120.5C348.7,120.5 340.6,125.8 340.6,141.9L340.6,174.9L322,174.9L322,175Z" style="fill:rgb(14,224,110);fill-rule:nonzero;"/>
            <path d="M374.4,148.7L374.4,102.4L393,102.4L393,144.3C393,153.6 397.8,159.8 406.3,159.8C414.5,159.8 420.6,153.6 420.6,144.4L420.6,102.3L439.2,102.3L439.2,175L421.2,175L421.2,165.8C416.5,173.1 409.3,176.6 400.2,176.6C384.9,176.7 374.4,166.4 374.4,148.7Z" style="fill:rgb(14,224,110);fill-rule:nonzero;"/>
            <path d="M449.1,154.5L465.5,150.8C466.3,157.2 471.5,161.5 480.2,161.5C487.3,161.5 491.4,158.5 491.4,154.6C491.4,151.4 489.5,149.3 482.6,147.6L470.8,144.9C457,141.7 450.5,135.2 450.5,123.1C450.5,110.8 460.8,101 479.6,101C499.5,101 507.7,112.8 508.8,121.3L492.4,124.9C491.6,120.4 488.2,115.6 479.2,115.6C473.3,115.6 468.9,118.3 468.9,122.2C468.9,125.6 471.5,127.5 475.5,128.5L491.5,132.3C504,135.3 510,142.6 510,153.3C510,165 500.5,176.5 480.3,176.5C458.3,176.4 450.1,163.4 449.1,154.5Z" style="fill:rgb(14,224,110);fill-rule:nonzero;"/>
            <path d="M548.3,175C535.8,175 527.9,167.9 527.9,154.6L527.9,118.5L515.8,118.5L515.8,102.3L527.9,102.3L527.9,85.8L546.5,80.5L546.5,102.4L561.3,102.4L561.3,118.6L546.5,118.6L546.5,151.5C546.5,156.8 549.1,158.9 554.5,158.9L562.6,158.9L562.6,175L548.3,175Z" style="fill:rgb(14,224,110);fill-rule:nonzero;"/>
            <rect x="574.8" y="75" width="18.6" height="100" style="fill:rgb(14,224,110);fill-rule:nonzero;"/>
            <path d="M655,102.4L675,102.4L644.3,201.1L624.3,201.1L632.8,175.1L622.7,175.1L602,102.4L622,102.4L637.8,159.6L655,102.4Z" style="fill:rgb(14,224,110);fill-rule:nonzero;"/>
        </g>
        <path d="M75,118.8L121.7,118.8L121.7,81.6L158.9,118.8L121.7,156L121.7,175L166.8,175L166.8,118.8L208.3,118.8L208.3,75L75,75L75,118.8Z" style="fill:rgb(14,224,110);fill-rule:nonzero;"/>
    </g>
</svg>
